Patient4_TMGait_0pt7_01_left_31_GRF.mot
version=1
nRows=71
nColumns=19
inDegrees=no
endheader
time	F1x	F1y	F1z	M1x	M1y	M1z	F2x	F2y	F2z	M2x	M2y	M2z	EC1x	EC1y	EC1z	EC2x	EC2y	EC2z
35.77	17.7982	-8.0621	7.3351	-0.34358	0.50073	-18.8705	-20.4848	734.2312	-59.0109	234.8672	85.5465	796.4758	-0.0592	0.0182	-0.0073	-0.0462	0.0165	0.9585
35.7819	11.8786	-4.5752	5.1968	-0.5951	0.05714	-11.7355	-22.2198	728.2049	-60.5749	234.8418	83.2749	786.9218	-0.0592	0.0182	-0.0073	-0.0462	0.0165	0.9585
35.7937	6.8996	-1.5883	3.3262	-0.80545	-0.27135	-5.684	-23.2393	724.0551	-61.7752	235.2257	80.9489	778.7291	-0.0592	0.0182	-0.0073	-0.0462	0.0165	0.9585
35.8056	3.0891	0.73602	1.8634	-0.97291	-0.50228	-1.0084	-23.4119	722.3622	-62.3827	236.127	78.5497	772.5767	-0.0592	0.0182	-0.0073	-0.0462	0.0165	0.9585
35.8174	0.46722	2.3595	0.82998	-1.0926	-0.64814	2.2359	-22.7366	723.2493	-62.3927	237.6078	76.0987	768.6639	-0.0592	0.0182	-0.0073	-0.0462	0.0165	0.9585
35.8293	-1.1902	3.3832	0.17481	-1.1703	-0.74201	4.2755	-21.2683	726.5815	-61.8233	239.6918	73.5362	766.9085	-0.0592	0.0182	-0.0073	-0.0462	0.0165	0.9585
35.8411	-2.0784	3.8971	-0.1782	-1.2006	-0.79926	5.3048	-19.117	732.0364	-60.802	242.3421	70.8701	767.0355	-0.0592	0.0182	-0.0073	-0.0462	0.0165	0.9585
35.853	-2.4778	4.0201	-0.30838	-1.1806	-0.85569	5.6044	-16.4324	739.1378	-59.4001	245.4535	68.0511	768.6094	-0.0592	0.0182	-0.0073	-0.0462	0.0165	0.9585
35.8649	-2.5547	3.8001	-0.28815	-1.0936	-0.92198	5.3129	-13.35	747.1931	-57.8103	248.815	65.1542	770.9857	-0.0592	0.0182	-0.0073	-0.0462	0.0165	0.9585
35.8767	-2.4981	3.2777	-0.17319	-0.91997	-1.0204	4.5872	-9.9769	755.3052	-56.1863	252.1226	62.2354	773.3247	-0.0592	0.0182	-0.0073	-0.0462	0.0165	0.9585
35.8886	-2.3756	2.4135	-0.0034438	-0.6262	-1.1505	3.4313	-6.3912	762.5077	-54.7441	255.028	59.4318	774.72	-0.0592	0.0182	-0.0073	-0.0462	0.0165	0.9585
35.9004	-2.2722	1.1689	0.19238	-0.18256	-1.3129	1.8552	-2.649	767.9419	-53.5849	257.2113	56.7956	774.379	-0.0592	0.0182	-0.0073	-0.0462	0.0165	0.9585
35.9123	-2.166	-0.50414	0.38555	0.4321	-1.4712	-0.19947	1.2223	770.8801	-52.8022	258.4011	54.393	771.6373	-0.0592	0.0182	-0.0073	-0.0462	0.0165	0.9585
35.9241	-2.0481	-2.5736	0.54153	1.2085	-1.577	-2.6872	5.2091	770.8418	-52.4019	258.4219	52.2306	766.083	-0.0592	0.0182	-0.0073	-0.0462	0.0165	0.9585
35.936	-1.821	-4.9122	0.61073	2.0915	-1.5399	-5.4801	9.3179	767.6446	-52.3766	257.2197	50.3093	757.5818	-0.0592	0.0182	-0.0073	-0.0462	0.0165	0.9585
35.9479	-1.3884	-7.1664	0.53006	2.9409	-1.2428	-8.1741	13.517	761.5462	-52.6765	254.9017	48.607	746.4331	-0.0592	0.0182	-0.0073	-0.0462	0.0165	0.9585
35.9597	-0.59523	-8.7033	0.21907	3.5036	-0.53279	-10.0481	17.7823	753.185	-53.2413	251.711	47.0969	733.2709	-0.0592	0.0182	-0.0073	-0.0462	0.0165	0.9585
35.9716	0.70169	-8.5015	-0.42532	3.3791	0.77108	-9.89	22.0012	743.4601	-54.0427	247.9799	45.8038	718.9927	-0.0592	0.0182	-0.0073	-0.0462	0.0165	0.9585
35.9834	2.652	-5.1185	-1.5095	2.005	2.8549	-5.9775	26.0842	733.3365	-55.0308	244.0665	44.7318	704.5304	-0.0592	0.0182	-0.0073	-0.0462	0.0165	0.9585
35.9953	5.328	3.2815	-3.1356	-1.3314	5.8698	3.8986	29.8782	723.6808	-56.1927	240.294	43.9297	690.7345	-0.0592	0.0182	-0.0073	-0.0462	0.0165	0.9585
36.0071	8.6768	18.8257	-5.3385	-7.4432	9.8321	22.2877	33.3041	715.0616	-57.4366	236.8883	43.349	678.1387	-0.0592	0.0182	-0.0073	-0.0462	0.0165	0.9585
36.019	12.4055	43.5749	-8.0417	-17.1079	14.5267	51.669	36.2778	707.6381	-58.6565	233.9301	42.9194	666.9142	-0.0592	0.0182	-0.0073	-0.0462	0.0165	0.9585
36.0309	15.8636	78.9674	-10.9634	-30.8452	19.3516	93.8035	38.7995	701.0427	-59.6416	231.3213	42.4501	656.7092	-0.0592	0.0182	-0.0073	-0.0462	0.0165	0.9585
36.0427	17.9144	124.8666	-13.5153	-48.5503	23.1479	148.5927	40.8426	694.4062	-60.159	228.785	41.7395	646.7455	-0.0592	0.0182	-0.0073	-0.0462	0.0165	0.9585
36.0546	16.9231	178.4186	-14.7244	-69.0606	24.1207	212.7327	42.4183	686.3579	-59.9427	225.8743	40.5479	635.78	-0.0592	0.0182	-0.0073	-0.0462	0.0165	0.9585
36.0664	11.815	233.6122	-13.3511	-89.9894	20.3991	279.1393	43.5185	675.2812	-58.7991	222.0509	38.7111	622.3758	-0.0592	0.0182	-0.0073	-0.0462	0.0165	0.9585
36.0783	3.8938	282.5184	-8.3615	-108.266	11.3193	338.2782	44.2077	659.665	-56.6538	216.8092	36.1523	605.1442	-0.0592	0.0182	-0.0073	-0.0462	0.0165	0.9585
36.0901	-4.131	318.4243	-0.33716	-121.4065	-1.3381	381.8202	44.5437	638.6292	-53.611	209.8411	32.9565	583.2921	-0.0592	0.0182	-0.0073	-0.0462	0.0165	0.9585
36.102	-10.6336	339.5128	8.9567	-128.825	-14.8177	407.3386	44.6371	612.1248	-49.9334	201.1085	29.3263	556.7678	-0.0592	0.0182	-0.0073	-0.0462	0.0165	0.9585
36.1139	-15.4115	349.398	17.8869	-131.9903	-27.1081	419.0917	44.5903	580.9509	-45.9238	190.8515	25.4981	526.2996	-0.0592	0.0182	-0.0073	-0.0462	0.0165	0.9585
36.1257	-18.9551	354.2447	25.1352	-133.3091	-36.8794	424.562	44.5388	546.46	-41.8516	179.5002	21.671	493.1068	-0.0592	0.0182	-0.0073	-0.0462	0.0165	0.9585
36.1376	-21.8001	359.5511	30.0885	-134.899	-43.6294	430.4374	44.5494	510.0725	-37.8253	167.5241	17.9239	458.4802	-0.0592	0.0182	-0.0073	-0.0462	0.0165	0.9585
36.1494	-24.3694	368.6581	32.5069	-138.0252	-47.2788	440.7293	44.6045	472.9145	-33.806	155.3039	14.2363	423.4581	-0.0592	0.0182	-0.0073	-0.0462	0.0165	0.9585
36.1613	-26.7079	382.7474	32.9109	-143.082	-48.4583	456.7934	44.5752	435.5788	-29.6953	143.0454	10.5694	388.5822	-0.0592	0.0182	-0.0073	-0.0462	0.0165	0.9585
36.1731	-28.6706	401.6554	32.1488	-149.9285	-48.1177	478.4309	44.248	398.2038	-25.472	130.795	6.9756	353.9974	-0.0592	0.0182	-0.0073	-0.0462	0.0165	0.9585
36.185	-30.0304	424.6158	31.3124	-158.1807	-47.4431	504.68	43.3998	360.669	-21.2479	118.5059	3.62	319.5936	-0.0592	0.0182	-0.0073	-0.0462	0.0165	0.9585
36.1969	-30.7867	450.4122	31.4032	-167.3058	-47.5918	534.0649	41.7787	322.8406	-17.2176	106.1227	0.73912	285.2471	-0.0592	0.0182	-0.0073	-0.0462	0.0165	0.9585
36.2087	-31.1348	477.7898	33.0885	-176.8001	-49.4042	565.0638	39.2429	284.7657	-13.5848	93.6532	-1.4594	250.9739	-0.0592	0.0182	-0.0073	-0.0462	0.0165	0.9585
36.2206	-31.2642	506.2093	36.4777	-186.478	-53.0747	596.9128	35.7569	246.8318	-10.5089	81.2174	-2.8501	217.097	-0.0592	0.0182	-0.0073	-0.0462	0.0165	0.9585
36.2324	-31.2284	535.9041	41.165	-196.4912	-58.1808	629.7197	31.461	209.6883	-8.0526	69.0288	-3.4456	184.1372	-0.0592	0.0182	-0.0073	-0.0462	0.0165	0.9585
36.2443	-30.9713	567.3781	46.7117	-207.1049	-64.1917	663.8751	26.5903	174.1698	-6.2012	57.3613	-3.3535	152.7959	-0.0592	0.0182	-0.0073	-0.0462	0.0165	0.9585
36.2561	-30.4282	600.8429	52.6234	-218.4742	-70.5117	699.4482	21.4876	141.0894	-4.8474	46.4884	-2.7854	123.7301	-0.0592	0.0182	-0.0073	-0.0462	0.0165	0.9585
36.268	-29.5306	635.8777	58.5945	-230.4993	-76.7432	735.8713	16.4629	111.1051	-3.86	36.6313	-1.9542	97.4896	-0.0592	0.0182	-0.0073	-0.0462	0.0165	0.9585
36.2799	-28.2484	671.5111	64.4161	-242.8462	-82.6183	772.0279	11.8216	84.6211	-3.1055	27.9284	-1.0618	74.3916	-0.0592	0.0182	-0.0073	-0.0462	0.0165	0.9585
36.2917	-26.5577	706.4042	69.9814	-255.0289	-87.9823	806.4576	7.7175	61.8827	-2.4829	20.4596	-0.24339	54.6515	-0.0592	0.0182	-0.0073	-0.0462	0.0165	0.9585
36.3036	-24.395	739.1746	75.1583	-266.5291	-92.6517	837.7331	4.2864	43.0073	-1.9378	14.2632	0.41065	38.3405	-0.0592	0.0182	-0.0073	-0.0462	0.0165	0.9585
36.3154	-21.7209	768.4441	79.8009	-276.8297	-96.4428	864.4787	1.6061	28.0517	-1.4524	9.354	0.86106	25.5098	-0.0592	0.0182	-0.0073	-0.0462	0.0165	0.9585
36.3273	-18.5689	792.9193	83.7881	-285.4394	-99.2308	885.4673	-0.22173	16.895	-1.0217	5.6939	1.0765	16.0015	-0.0592	0.0182	-0.0073	-0.0462	0.0165	0.9585
36.3391	-14.9863	811.5551	87.0411	-291.9458	-100.9576	899.777	-1.2703	9.27	-0.66792	3.1918	1.1073	9.5587	-0.0592	0.0182	-0.0073	-0.0462	0.0165	0.9585
36.351	-11.1301	823.5652	89.5432	-296.0321	-101.6751	906.8022	-1.748	4.6153	-0.39872	1.6645	1.0302	5.6695	-0.0592	0.0182	-0.0073	-0.0462	0.0165	0.9585
36.3629	-7.2139	828.5498	91.2898	-297.5274	-101.4793	906.3357	-1.8533	2.2387	-0.22027	0.88389	0.91537	3.7424	-0.0592	0.0182	-0.0073	-0.0462	0.0165	0.9585
36.3747	-3.4585	826.6132	92.3039	-296.456	-100.5019	898.7105	-1.7359	1.4414	-0.11381	0.62258	0.7919	3.1677	-0.0592	0.0182	-0.0073	-0.0462	0.0165	0.9585
36.3866	-0.063911	818.348	92.6245	-293.0377	-98.8875	884.6954	-1.5304	1.6324	-0.073427	0.6878	0.69659	3.4292	-0.0592	0.0182	-0.0073	-0.0462	0.0165	0.9585
36.3984	2.8228	804.771	92.3361	-287.661	-96.8024	865.4375	-1.3046	2.356	-0.078148	0.93141	0.63575	4.1298	-0.0592	0.0182	-0.0073	-0.0462	0.0165	0.9585
36.4103	5.1573	787.2279	91.4942	-280.8481	-94.342	842.3505	-1.1199	3.2805	-0.10989	1.2451	0.61312	4.9936	-0.0592	0.0182	-0.0073	-0.0462	0.0165	0.9585
36.4221	6.9271	767.2951	90.1912	-273.2032	-91.6132	817.0276	-0.99014	4.1991	-0.15066	1.5593	0.62031	5.8355	-0.0592	0.0182	-0.0073	-0.0462	0.0165	0.9585
36.434	8.1821	746.5648	88.5287	-265.3364	-88.715	791.0525	-0.9204	4.9737	-0.1931	1.8261	0.65236	6.5293	-0.0592	0.0182	-0.0073	-0.0462	0.0165	0.9585
36.4459	9.0028	726.5156	86.6301	-257.8059	-85.7576	765.8855	-0.89543	5.4994	-0.22841	2.0084	0.69478	6.9728	-0.0592	0.0182	-0.0073	-0.0462	0.0165	0.9585
36.4577	9.5018	708.3516	84.6276	-251.0581	-82.8471	742.6862	-0.90614	5.6886	-0.25848	2.0719	0.74576	7.0665	-0.0592	0.0182	-0.0073	-0.0462	0.0165	0.9585
36.4696	9.8485	692.9816	82.6164	-245.4189	-80.0302	722.3322	-0.94078	5.4397	-0.28119	1.9775	0.79574	6.6662	-0.0592	0.0182	-0.0073	-0.0462	0.0165	0.9585
36.4814	10.273	681.052	80.6596	-241.1087	-77.2968	705.4274	-0.97146	4.6342	-0.29412	1.6787	0.82871	5.6067	-0.0592	0.0182	-0.0073	-0.0462	0.0165	0.9585
36.4933	11.0037	672.9054	78.742	-238.2371	-74.5536	692.2669	-0.97048	3.1367	-0.30055	1.1238	0.83088	3.7049	-0.0592	0.0182	-0.0073	-0.0462	0.0165	0.9585
36.5051	12.2601	668.5911	76.8499	-236.7975	-71.7096	682.8665	-0.8871	0.82617	-0.28674	0.26652	0.76942	0.79925	-0.0592	0.0182	-0.0073	-0.0462	0.0165	0.9585
36.517	14.1708	667.7659	74.9736	-236.6412	-68.6986	676.8598	-0.6674	-2.3548	-0.24772	-0.91343	0.61776	-3.1843	-0.0592	0.0182	-0.0073	-0.0462	0.0165	0.9585
36.5289	16.7931	669.7227	73.1711	-237.4839	-65.5363	673.5089	-0.25172	-6.2975	-0.16782	-2.374	0.33563	-8.1315	-0.0592	0.0182	-0.0073	-0.0462	0.0165	0.9585
36.5407	20.1792	673.4798	71.5235	-238.9397	-62.2604	671.822	0.40209	-10.6266	-0.036519	-3.9732	-0.10815	-13.5812	-0.0592	0.0182	-0.0073	-0.0462	0.0165	0.9585
36.5526	24.3838	677.8682	70.1236	-240.5584	-58.9188	670.6411	1.3242	-14.5423	0.1617	-5.4094	-0.74292	-18.5375	-0.0592	0.0182	-0.0073	-0.0462	0.0165	0.9585
36.5644	29.4304	681.7073	69.0301	-241.8893	-55.5373	668.8185	2.4929	-16.6605	0.43195	-6.1672	-1.5619	-21.2727	-0.0592	0.0182	-0.0073	-0.0462	0.0165	0.9585
36.5763	35.2933	683.9629	68.2896	-242.5385	-52.1597	665.3789	3.8135	-14.8993	0.7777	-5.47	-2.5228	-19.1987	-0.0592	0.0182	-0.0073	-0.0462	0.0165	0.9585
36.5881	41.862	683.8376	67.9313	-242.21	-48.8495	659.6102	5.0672	-6.37	1.1722	-2.2494	-3.4968	-8.6993	-0.0592	0.0182	-0.0073	-0.0462	0.0165	0.9585
36.6	48.9422	680.787	67.9314	-240.7187	-45.6626	651.0881	5.8634	12.5192	1.564	4.8173	-4.249	14.7331	-0.0592	0.0182	-0.0073	-0.0462	0.0165	0.9585
